<?xml version="1.0" encoding="UTF-8"?>
<svg id="Calque_1" data-name="Calque 1" xmlns="http://www.w3.org/2000/svg" viewBox="0 0 3474.83203125 2834.6456692913398">
  <defs>
    <style>
      .cls-1 {
        stroke-width: 3px;
      }

      .cls-1, .cls-2 {
        fill: #fff;
        stroke: #1d1d1b;
        stroke-miterlimit: 10;
      }

      .cls-2 {
        stroke-width: 8px;
      }
    </style>
  </defs>
  <path class="cls-2" d="m2158.916748046880457,936.89727783203125H41.26983642578125c-9.64874267578125,0-17.4705810546875,7.82183837890625-17.4705810546875,17.4705810546875s7.82183837890625,17.47064208984375,17.4705810546875,17.47064208984375l3.7940673828125-.00006103515625c53.7677001953125,7.75469970703125,116.44830322265625,3.22552490234375,130.676513671875,42.35296630859375l315.5294189453125,867.705810546880457.9066162109375,2.493286132808862h1667.647033691411707c533.647216796869543,0,627.551513671869543-211.54541015625,627.551513671869543-472.499999999999091,0-260.954467773440228-281.87109375-474.993225097658978-628.458251953119543-474.993225097658978Zm-1583.104187011724207,65.64031982421875l222.73748779296875-.75c39.41949462890625-.132690429690228,66.93890380859375,39.009399414059772,53.4737548828125,76.05810546875l-173.312744140625,476.860229492189319-156.58160400390625-477.821289062499091c-11.987548828125-36.580932617190228,15.1883544921875-74.217468261720569,53.68310546875-74.347045898440228Zm501.62493896484375,795.059326171880457c0,31.246459960930224-25.282348632809772,56.60205078125-56.528747558590112,56.692626953119543l-387.379333496097388,1.122192382810681,281.25274658203125-786.369262695310681c38.017333984375-88.7613525390625,154.62994384765625-92.5421142578125,162.65533447265625,3.68408203125v724.870361328130457Zm881.739013671880457-30.724243164069776c0,51.662475585939319-41.880737304691138,93.543334960939319-93.543334960941138,93.543334960939319h-54.116821289058862c-31.310546875,0-56.69287109375-25.38232421875-56.69287109375-56.69287109375v-418.428955078119543c-86.54833984375,150.060913085930224-182.6083984375,428.071533203119543-462.409912109380457,464.974853515619543-33.848022460940228,4.464233398439319-63.825317382809772-22.101806640619543-63.825317382809772-56.242919921869543v-726.151123046880457c0-51.662475585940228,41.880737304690228-93.543212890625,93.543334960940228-93.543212890625h543.501586914058862c51.66259765625,0,93.543334960941138,41.880737304684772,93.543334960941138,93.543212890625v698.997680664060681Zm172.058837890619543,87.253051757819776v-884.470520019536707c190.85498046875,0,345.573486328130457,197.995422363286707,345.573486328130457,442.235290527346478s-154.718505859380457,442.235229492190228-345.573486328130457,442.235229492190228Z"/>
  <g>
    <path class="cls-1" d="m2825.69140625,1798.9453125c0,6.8203125.744140625,13.7958984375,2.2314453125,20.9248046875,1.48828125,7.1318359375,3.8427734375,13.734375,7.068359375,19.80859375,3.22265625,6.0771484375,7.3759765625,10.9453125,12.4619140625,14.6015625,5.0830078125,3.658203125,11.220703125,5.486328125,18.4140625,5.486328125,2.7265625,0,5.734375-.33984375,9.021484375-1.0224609375,3.283203125-.6806640625,6.13671875-1.8603515625,8.5546875-3.5341796875s3.626953125-3.935546875,3.626953125-6.7890625v-9.671875c0-7.068359375-.9931640625-12.08984375-2.974609375-15.06640625-1.986328125-2.9755859375-4.49609375-4.771484375-7.533203125-5.3935546875-3.041015625-.619140625-6.169921875-.9306640625-9.3935546875-.9306640625h-.000004091800292c-2.259834727699854,0-4.091792783199708-1.83195802957016-4.091792783199708-4.091792783199708v-2.975594121100585c0-2.259834753629548,1.83195802957016-4.091792783199708,4.091792783199708-4.091792783199708h55.986336308600585c2.259834753629548,0,4.091792783199708,1.83195802957016,4.091792783199708,4.091792783199708v2.976570683600585c0,2.259295413050495-1.831520807649213,4.090816220699708-4.090816220699708,4.090816220699708h-.187504091800292c-3.2255859375,0-4.8359375,2.046875-4.8359375,6.138671875v5.234514875539389c0,15.693412680930123-7.660018333819608,30.51639681298002-20.724595901370776,39.211223697700916-.097382028319771.064810352540007-.195042770508735.12944697364037-.292982223629224.193909864259695-9.796875,6.44921875-21.76171875,9.671875-35.8984375,9.671875-10.416015625,0-19.779296875-1.798828125-28.0859375-5.3935546875-8.30859375-3.5947265625-15.376953125-8.6171875-21.2041015625-15.06640625-5.8291015625-6.4462890625-10.2939453125-13.9501953125-13.3916015625-22.505859375-3.1015625-8.5556640625-4.650390625-17.7919921875-4.650390625-27.7138671875,0-6.19921875.6796875-12.708984375,2.046875-19.5302734375,1.3623046875-6.8173828125,3.626953125-13.4208984375,6.7890625-19.80859375,3.1611328125-6.384765625,7.375-12.1513671875,12.6474609375-17.2978515625,5.2685546875-5.14453125,11.7783203125-9.236328125,19.5302734375-12.2763671875,7.748046875-3.037109375,16.955078125-4.556640625,27.62109375-4.556640625,8.927734375,0,16.646484375,1.115234375,23.15625,3.34765625s11.93359375,5.0859375,16.275390625,8.5556640625c4.3388671875,3.4736328125,7.779296875,7.068359375,10.322265625,10.7880859375,2.541015625,3.720703125,4.37109375,7.1611328125,5.48828125,10.3232421875,1.115234375,3.162109375,1.673828125,5.55078125,1.673828125,7.1611328125,0,1.1162109375-.279296875,1.923828125-.837890625,2.41796875-.5576171875.4970703125-1.333984375.9296875-2.32421875,1.3017578125l-22.64809763618905,7.982438337150597c-.029513853840399.01040230937906-.05803477092195.019044520178795-.088364332221317.026751226369015-.484028209559256.122991004031064-.994865662240045.27362960138089-1.536975531589633.453701061480388-.55859375.1865234375-1.1484375.279296875-1.767578125.279296875-.49609375,0-.9931640625-.0927734375-1.4873046875-.279296875-.4970703125-.185546875-.744140625-.7119140625-.744140625-1.5810546875,0-.619140625.0615234375-1.39453125.1865234375-2.32421875.12109375-.9306640625.185546875-2.2001953125.185546875-3.8134765625,0-8.5556640625-2.263671875-15.6845703125-6.7890625-21.3896484375-4.52734375-5.7021484375-11.3779296875-8.556640625-20.552734375-8.556640625-7.068359375,0-13.26953125,2.1396484375-18.599609375,6.4169921875-5.333984375,4.2783203125-9.45703125,10.201171875-12.369140625,17.763671875-2.916015625,7.564453125-4.37109375,16.3671875-4.37109375,26.412109375Z"/>
    <path class="cls-1" d="m2974.393943545119328,1799.376433069319319c-.078324821728529.418819157381222.490081758120141.607064845811692.690760373670855.231202693501473,3.234783033529311-6.058605247630112,7.499709472469476-10.744948516281511,12.796155456209817-14.054901387820792,5.9521484375-3.7197265625,12.2119140625-5.580078125,18.7861328125-5.580078125,5.8271484375,0,10.7880859375,1.61328125,14.8798828125,4.8359375,4.091796875,3.2265625,6.138671875,7.998046875,6.138671875,14.322265625,0,2.728515625-.25,5.1474609375-.744140625,7.25390625-.498046875,2.1103515625-1.8603515625,3.6591796875-4.0927734375,4.650390625l-17.4833984375,7.0673828125c-.744140625.25-1.302734375.3720703125-1.673828125.3720703125-1.1171875,0-1.6748046875-.5576171875-1.6748046875-1.673828125,0-.3720703125.1220703125-.9296875.3720703125-1.673828125.744140625-1.7353515625,1.208984375-3.4091796875,1.39453125-5.0224609375.1865234375-1.609375.279296875-3.037109375.279296875-4.27734375,0-3.3486328125-.8359375-5.794921875-2.5107421875-7.34765625-1.673828125-1.548828125-3.751953125-2.32421875-6.2314453125-2.32421875-2.853515625,0-5.5185546875.8681640625-7.998046875,2.603515625-2.4814453125,1.73828125-4.6494140625,3.8447265625-6.509765625,6.32421875-1.842043725260737,2.458315706870053-3.20007412708037,4.854332669139694-4.067444645510477,7.188050886810743-.016365961249903.044033710059011-.024352229489523.089981287448609-.024352229489523.13695800836831v34.152530167320947c0,4.9609375,1.1162109375,9.146484375,3.34765625,12.5556640625,2.232421875,3.4111328125,5.6416015625,5.1142578125,10.23046875,5.1142578125h.000003162109351c1.746382889070446,0,3.162106212890649,1.415723174170125,3.162106212890649,3.162106212890649v4.835940662109351c0,1.746384785110422-1.415724589889578,3.162109375-3.162109375,3.162109375h-53.3818359375c-1.746384785110422,0-3.162109375-1.415724589889578-3.162109375-3.162109375v-4.835940662109351c0-1.746383038720523,1.415723323820202-3.162106212890649,3.162106212890649-3.162106212890649h.000003162109351c4.5859375,0,7.998046875-1.703125,10.2294921875-5.1142578125,2.232421875-3.4091796875,3.34765625-7.5947265625,3.34765625-12.5556640625v-23.435546875c0-3.34765625-.216796875-6.5712890625-.650390625-9.671875-.435546875-3.0986328125-1.39453125-5.734375-2.8828125-7.9052734375-1.48828125-2.16796875-3.970703125-3.44140625-7.439453125-3.8125-1.48828125-.1220703125-2.232421875-.9306640625-2.232421875-2.4189453125v-6.3232421875c0-1.23828125.9296875-2.0458984375,2.7890625-2.41796875,8.8037109375-1.36328125,16.5234375-3.5341796875,23.158203125-6.5107421875,6.630859375-2.9755859375,11.126953125-5.330078125,13.484375-7.0673828125.3720703125-.2470703125.6796875-.3720703125.9296875-.3720703125h.373046875c.24609375,0,.37109375.125.37109375.3720703125,0,.125-.15625,1.0546875-.46484375,2.7900390625-.310546875,1.7373046875-.6826171875,3.9375-1.115234375,6.6025390625-.4365234375,2.66796875-.9306640625,5.39453125-1.48828125,8.1845703125-.346800817958865,1.732185204380585-.657465695760038,3.33300120965032-.932228329880672,4.802214319319319Z"/>
    <path class="cls-1" d="m3079.021484375,1779.97265625c7.0673828125,0,13.6064453125,1.3955078125,19.623046875,4.185546875,6.01171875,2.7900390625,11.1884765625,6.5732421875,15.5302734375,11.345703125,4.3388671875,4.775390625,7.7197265625,10.107421875,10.1376953125,15.99609375,2.41796875,5.890625,3.626953125,11.9970703125,3.626953125,18.3212890625,0,9.177734375-2.171875,17.390625-6.5107421875,24.64453125-4.341796875,7.25390625-10.0439453125,12.958984375-17.1123046875,17.1123046875-7.0673828125,4.15234375-14.7578125,6.23046875-23.0634765625,6.23046875-7.0673828125,0-13.578125-1.365234375-19.5302734375-4.091796875-5.951171875-2.7255859375-11.130859375-6.4169921875-15.53125-11.0673828125-4.40234375-4.6494140625-7.8115234375-9.9794921875-10.2294921875-15.9951171875-2.41796875-6.013671875-3.626953125-12.3056640625-3.626953125-18.8798828125,0-9.0498046875,2.1064453125-17.1728515625,6.3232421875-24.365234375,4.21484375-7.1904296875,9.859375-12.8955078125,16.9267578125-17.1123046875,7.0673828125-4.2138671875,14.8798828125-6.32421875,23.4365234375-6.32421875Zm7.998046875,82.7705078125c2.353515625,0,4.95703125-.619140625,7.8115234375-1.8603515625,2.8505859375-1.23828125,5.3623046875-3.4091796875,7.5322265625-6.509765625,2.16796875-3.0986328125,3.255859375-7.3759765625,3.255859375-12.833984375,0-4.3388671875-.837890625-9.1435546875-2.51171875-14.4150390625-1.673828125-5.26953125-3.96875-10.3525390625-6.880859375-15.251953125-2.916015625-4.8974609375-6.32421875-8.927734375-10.23046875-12.08984375s-8.1552734375-4.7431640625-12.7412109375-4.7431640625c-5.0859375,0-9.4853515625,1.8916015625-13.2060546875,5.6728515625-3.7197265625,3.7841796875-5.580078125,8.9599609375-5.580078125,15.53125,0,4.216796875.8369140625,8.9912109375,2.51171875,14.3212890625,1.673828125,5.3330078125,3.966796875,10.4482421875,6.880859375,15.345703125,2.912109375,4.8994140625,6.353515625,8.927734375,10.32421875,12.08984375,3.966796875,3.162109375,8.244140625,4.7431640625,12.833984375,4.7431640625Z"/>
    <path class="cls-1" d="m3235.6328125,1837.8193359375c0,3.2255859375.21484375,6.4169921875.650390625,9.578125.43359375,3.162109375,1.423828125,5.830078125,2.9765625,7.998046875,1.548828125,2.1708984375,3.998046875,3.44140625,7.3466796875,3.8134765625.9912109375.125,1.5810546875.404296875,1.7666015625.8369140625.1865234375.435546875.279296875.9619140625.279296875,1.5810546875l-.000026169329431,5.766724716029785c-.000007461700079,1.644273493979199-1.338606511500984,2.972021604489782-2.982875384850558,2.975919705620981-5.908401336409952.014007165338626-10.835601945880626.35651128822974-14.779793758320011,1.022004015849234-4.03125.68359375-7.50390625,1.5517578125-10.416015625,2.6044921875-2.9150390625,1.0546875-5.7978515625,2.2001953125-8.6494140625,3.4404296875-.49609375.2470703125-.994140625.3720703125-1.48828125.3720703125h-.37109375c-.25,0-.373046875-.185546875-.373046875-.5576171875s.2158203125-2.2607421875.65234375-5.6728515625c.397044862669645-3.128856920009639,1.083633565349373-8.37253546698048,2.055991451159571-15.734055366430766.053408924321047-.404347889809287-.48328128789035-.593491408179034-.682729445959922-.237724403759785-1.633796703910775,2.914295949391089-3.734779872309446,5.912285216139935-6.302949505199649,8.996193832690551-3.1015625,3.720703125-6.853515625,6.853515625-11.2529296875,9.3935546875-4.4033203125,2.5400390625-9.45703125,3.8125-15.1591796875,3.8125-6.6953125,0-12.12109375-1.0224609375-16.275390625-3.068359375-4.1552734375-2.0458984375-7.3466796875-4.7724609375-9.578125-8.1845703125-2.232421875-3.4091796875-3.751953125-7.25390625-4.556640625-11.5322265625-.80859375-4.27734375-1.208984375-8.6484375-1.208984375-13.1123046875v-30.6904296875c0-5.0830078125-1.1484375-9.2998046875-3.44140625-12.6474609375-2.296875-3.3486328125-5.7373046875-5.0224609375-10.3232421875-5.0224609375h-.373046875c-1.74584544452955,0-3.1611328125-1.41528736797045-3.1611328125-3.1611328125v-4.837890625c0-1.74584544452955,1.41528736797045-3.1611328125,3.1611328125-3.1611328125h37.0166015625c1.745306103959592,0,3.16015625,1.414850146040408,3.16015625,3.16015625v57.4765625c0,3.34765625.30859375,6.4169921875.9296875,9.2060546875.619140625,2.7900390625,1.8896484375,5.0224609375,3.8134765625,6.6962890625,1.9208984375,1.673828125,4.8037109375,2.5107421875,8.6494140625,2.5107421875,3.09765625,0,6.19921875-.7724609375,9.2998046875-2.32421875,3.0986328125-1.5498046875,5.8583984375-3.5341796875,8.2763671875-5.9521484375,2.3966341826399-2.3966341826399,4.090983586729635-4.884411881610504,5.088753853910021-7.464284037210746.0177094059909-.04579010308953.026480521089979-.094199039409432.026480521089979-.143294422099643v-34.335780915689611c0-5.0830078125-1.1484375-9.2998046875-3.44140625-12.6474609375-2.294921875-3.3486328125-5.671875-5.0224609375-10.13671875-5.0224609375h-.000003162109351c-1.746383127490844,0-3.162106212890649-1.415723174170125-3.162106212890649-3.162106212890649v-4.836917224609351c0-1.74584544452955,1.41528736797045-3.1611328125,3.1611328125-3.1611328125h36.64453125c1.74584544452955,0,3.1611328125,1.41528736797045,3.1611328125,3.1611328125v52.267578125Z"/>
    <path class="cls-1" d="m3292.101340257519041,1789.177788149519984c-.218196145749971,1.707013440849551,1.966454191409866,2.580203084249661,2.991658568651474,1.198009020399695.019719533200259-.026586134759782.039501173829194-.053219044919388.059344923829485-.079898732419679,1.982421875-2.6650390625,4.958984375-5.05078125,8.9287109375-7.1611328125,3.966796875-2.107421875,9.1142578125-3.162109375,15.4384765625-3.162109375,4.212890625,0,8.677734375.869140625,13.390625,2.6044921875,4.7119140625,1.7373046875,9.17578125,4.52734375,13.392578125,8.3701171875,4.21484375,3.8447265625,7.6552734375,8.8662109375,10.3232421875,15.0654296875,2.6650390625,6.2021484375,3.9990234375,13.828125,3.9990234375,22.8779296875,0,11.41015625-2.0458984375,20.7392578125-6.138671875,27.9931640625-4.091796875,7.25390625-9.423828125,12.5546875-15.99609375,15.9033203125-6.5732421875,3.34765625-13.640625,5.021484375-21.203125,5.021484375-8.226156955959596,0-15.410986384420539-2.266374983060814-21.557084848829618-6.79977409005005-1.085584225291313-.800733438620227-2.622602651170382.009799832179851-2.622602651170382,1.358750220410002v11.393172307140048c0,4.9580078125,1.115234375,9.1435546875,3.34765625,12.5546875,1.997394271940721,3.050263955959963,4.93603118027022,4.737133262520729,8.820121899629157,5.058488738490269,2.349169830091341.194361729269076,4.199400168781722,2.067902766850239,4.199402534370165,4.425099273799788l.000002346951078,2.338620624210307c.00000246819036,2.459423777560005-1.993753741890032,4.453181988499637-4.453177519450037,4.453181988499637h-49.869028318049459c-2.459423578131464,0-4.453180318450904-1.993756740319441-4.453180318450904-4.453180318450904v-3.916936869049096c0-1.859375.990234375-2.7900390625,2.9755859375-2.7900390625,4.5859375,0,7.9658203125-1.7060546875,10.1376953125-5.115234375,2.16796875-3.4111328125,3.25390625-7.5966796875,3.25390625-12.5546875v-63.9833984375c0-3.3486328125-.185546875-6.5712890625-.5576171875-9.6728515625-.3720703125-3.09765625-1.333984375-5.7333984375-2.8828125-7.904296875-1.5517578125-2.16796875-4.0634765625-3.44140625-7.533203125-3.8134765625-.8681640625-.1220703125-1.4267578125-.4013671875-1.673828125-.8369140625-.25-.4326171875-.3720703125-.958984375-.3720703125-1.5810546875v-6.32421875c0-1.609375.8662109375-2.41796875,2.603515625-2.41796875,6.19921875,0,11.283203125-.2783203125,15.251953125-.8369140625,3.9677734375-.5576171875,7.408203125-1.39453125,10.32421875-2.5107421875,2.9111328125-1.1162109375,5.794921875-2.3544921875,8.6484375-3.7197265625.3720703125-.2470703125.7119140625-.3720703125,1.0234375-.3720703125h.8359375c.248046875,0,.373046875.185546875.373046875.5576171875,0,.125-.033203125.4365234375-.09375.9296875-.064453125.4970703125-.2177734375,1.892578125-.46484375,4.185546875-.105520948200137.969061520350806-.254536703059784,2.208312779759581-.447487867480959,3.717827212019984Zm1.006081617480959,52.980311372290089c0,.083284894670214.005284745229801.166765376910917.016178410071007.249334752270443.501431266518921,3.800637072919926,1.581934327228737,7.478953252390056,3.237727839928993,11.034948538419485,1.673828125,3.5986328125,4,6.5107421875,6.9755859375,8.7421875,2.9755859375,2.232421875,6.509765625,3.3486328125,10.6025390625,3.3486328125,5.951171875,0,10.6015625-1.48828125,13.94921875-4.4638671875,3.34765625-2.9765625,5.673828125-6.818359375,6.974609375-11.5322265625,1.302734375-4.7109375,1.953125-9.6083984375,1.953125-14.6943359375,0-11.904296875-2.388671875-21.326171875-7.16015625-28.271484375-4.775390625-6.943359375-11.005859375-10.416015625-18.693359375-10.416015625-4.9609375,0-8.9599609375,1.39453125-11.9970703125,4.1845703125-2.930988718318986,2.689956559019265-4.851642959760284,5.293676123159457-5.761087528990174,7.810283497090495-.067448506089931.186642939568628-.097310908509826.382165593549871-.097310908509826.580621855398931v33.427350419320646Z"/>
  </g>
  <circle class="cls-1" cx="3376.588235294117112" cy="1867.573299632352246" r="10.2352941176473"/>
</svg>