<?xml version="1.0" encoding="UTF-8"?>
<svg id="Calque_1" data-name="Calque 1" xmlns="http://www.w3.org/2000/svg" viewBox="0 0 3474.83203125 2834.6456692913398">
  <defs>
    <style>
      .cls-1, .cls-2 {
        stroke-width: 3px;
      }

      .cls-1, .cls-2, .cls-3 {
        stroke: #fff;
        stroke-miterlimit: 10;
      }

      .cls-2, .cls-3 {
        fill: #1d1d1b;
      }

      .cls-3 {
        stroke-width: 8px;
      }
    </style>
  </defs>
  <path class="cls-3" d="m2158.916748046875,936.89727783203125H41.26983642578125c-9.64874267578125,0-17.4705810546875,7.82183837890625-17.4705810546875,17.4705810546875s7.82183837890625,17.47064208984375,17.4705810546875,17.47064208984375l3.7940673828125-.00006103515625c53.7677001953125,7.75469970703125,116.44830322265625,3.22552490234375,130.676513671875,42.35296630859375l315.5294189453125,867.705810546875.9066162109375,2.4932861328125h1667.64703369140625c533.647216796875,0,627.551513671875-211.54541015625,627.551513671875-472.5,0-260.9544677734375-281.87109375-474.99322509765625-628.458251953125-474.99322509765625Zm-1583.10418701171875,65.64031982421875l222.73748779296875-.75c39.41949462890625-.1326904296875,66.93890380859375,39.0093994140625,53.4737548828125,76.05810546875l-173.312744140625,476.8602294921875-156.58160400390625-477.8212890625c-11.987548828125-36.5809326171875,15.1883544921875-74.21746826171875,53.68310546875-74.3470458984375Zm501.62493896484375,795.059326171875c0,31.2464599609375-25.2823486328125,56.60205078125-56.52874755859375,56.692626953125l-387.37933349609375,1.1221923828125,281.25274658203125-786.3692626953125c38.017333984375-88.7613525390625,154.62994384765625-92.5421142578125,162.65533447265625,3.68408203125v724.870361328125Zm881.739013671875-30.7242431640625c0,51.6624755859375-41.8807373046875,93.5433349609375-93.5433349609375,93.5433349609375h-54.1168212890625c-31.310546875,0-56.69287109375-25.38232421875-56.69287109375-56.69287109375v-418.428955078125c-86.54833984375,150.0609130859375-182.6083984375,428.071533203125-462.409912109375,464.974853515625-33.8480224609375,4.4642333984375-63.8253173828125-22.101806640625-63.8253173828125-56.242919921875v-726.151123046875c0-51.6624755859375,41.8807373046875-93.543212890625,93.5433349609375-93.543212890625h543.5015869140625c51.66259765625,0,93.5433349609375,41.8807373046875,93.5433349609375,93.543212890625v698.9976806640625Zm172.058837890625,87.2530517578125v-884.47052001953125c190.85498046875,0,345.573486328125,197.99542236328125,345.573486328125,442.23529052734375s-154.718505859375,442.2352294921875-345.573486328125,442.2352294921875Z"/>
  <g>
    <path class="cls-2" d="m2825.69140625,1798.9453125c0,6.8203125.744140625,13.7958984375,2.2314453125,20.9248046875,1.48828125,7.1318359375,3.8427734375,13.734375,7.068359375,19.80859375,3.22265625,6.0771484375,7.3759765625,10.9453125,12.4619140625,14.6015625,5.0830078125,3.658203125,11.220703125,5.486328125,18.4140625,5.486328125,2.7265625,0,5.734375-.33984375,9.021484375-1.0224609375,3.283203125-.6806640625,6.13671875-1.8603515625,8.5546875-3.5341796875s3.626953125-3.935546875,3.626953125-6.7890625v-9.671875c0-7.068359375-.9931640625-12.08984375-2.974609375-15.06640625-1.986328125-2.9755859375-4.49609375-4.771484375-7.533203125-5.3935546875-3.041015625-.619140625-6.169921875-.9306640625-9.3935546875-.9306640625h-.000004091796654c-2.25983472770713,0-4.091792783203346-1.831958029571979-4.091792783203346-4.091792783201527v-2.975594121095128c0-2.259834753631367,1.831958029571979-4.091792783203346,4.091792783203346-4.091792783203346h55.986336308593309c2.259834753631367,0,4.091792783203346,1.831958029571979,4.091792783203346,4.091792783203346v2.976570683593309c0,2.259295413054133-1.831520807652851,4.090816220703346-4.090816220703346,4.090816220703346h-.187504091796654c-3.2255859375,0-4.8359375,2.046875-4.8359375,6.138671875v5.234514875535751c0,15.693412680933761-7.66001833381597,30.516396812983658-20.724595901367138,39.211223697706373-.09738202832159.064810352538188-.195042770508735.129446973633094-.292982223632862.193909864257876-9.796875,6.44921875-21.76171875,9.671875-35.8984375,9.671875-10.416015625,0-19.779296875-1.798828125-28.0859375-5.3935546875-8.30859375-3.5947265625-15.376953125-8.6171875-21.2041015625-15.06640625-5.8291015625-6.4462890625-10.2939453125-13.9501953125-13.3916015625-22.505859375-3.1015625-8.5556640625-4.650390625-17.7919921875-4.650390625-27.7138671875,0-6.19921875.6796875-12.708984375,2.046875-19.5302734375,1.3623046875-6.8173828125,3.626953125-13.4208984375,6.7890625-19.80859375,3.1611328125-6.384765625,7.375-12.1513671875,12.6474609375-17.2978515625,5.2685546875-5.14453125,11.7783203125-9.236328125,19.5302734375-12.2763671875,7.748046875-3.037109375,16.955078125-4.556640625,27.62109375-4.556640625,8.927734375,0,16.646484375,1.115234375,23.15625,3.34765625s11.93359375,5.0859375,16.275390625,8.5556640625c4.3388671875,3.4736328125,7.779296875,7.068359375,10.322265625,10.7880859375,2.541015625,3.720703125,4.37109375,7.1611328125,5.48828125,10.3232421875,1.115234375,3.162109375,1.673828125,5.55078125,1.673828125,7.1611328125,0,1.1162109375-.279296875,1.923828125-.837890625,2.41796875-.5576171875.4970703125-1.333984375.9296875-2.32421875,1.3017578125l-22.648097636185412,7.982438337150597c-.029513853844037.010402309375422-.05803477092195.019044520180614-.088364332226774.026751226365377-.484028209553799.122991004029245-.994865662240045.273629601386347-1.536975531587814.453701061484026-.55859375.1865234375-1.1484375.279296875-1.767578125.279296875-.49609375,0-.9931640625-.0927734375-1.4873046875-.279296875-.4970703125-.185546875-.744140625-.7119140625-.744140625-1.5810546875,0-.619140625.0615234375-1.39453125.1865234375-2.32421875.12109375-.9306640625.185546875-2.2001953125.185546875-3.8134765625,0-8.5556640625-2.263671875-15.6845703125-6.7890625-21.3896484375-4.52734375-5.7021484375-11.3779296875-8.556640625-20.552734375-8.556640625-7.068359375,0-13.26953125,2.1396484375-18.599609375,6.4169921875-5.333984375,4.2783203125-9.45703125,10.201171875-12.369140625,17.763671875-2.916015625,7.564453125-4.37109375,16.3671875-4.37109375,26.412109375Z"/>
    <path class="cls-2" d="m2974.393943545121147,1799.376433069321138c-.078324821730348.418819157375765.49008175812196.607064845811692.690760373672674.231202693494197,3.234783033523854-6.058605247624655,7.499709472467657-10.744948516270597,12.796155456206179-14.054901387815335,5.9521484375-3.7197265625,12.2119140625-5.580078125,18.7861328125-5.580078125,5.8271484375,0,10.7880859375,1.61328125,14.8798828125,4.8359375,4.091796875,3.2265625,6.138671875,7.998046875,6.138671875,14.322265625,0,2.728515625-.25,5.1474609375-.744140625,7.25390625-.498046875,2.1103515625-1.8603515625,3.6591796875-4.0927734375,4.650390625l-17.4833984375,7.0673828125c-.744140625.25-1.302734375.3720703125-1.673828125.3720703125-1.1171875,0-1.6748046875-.5576171875-1.6748046875-1.673828125,0-.3720703125.1220703125-.9296875.3720703125-1.673828125.744140625-1.7353515625,1.208984375-3.4091796875,1.39453125-5.0224609375.1865234375-1.609375.279296875-3.037109375.279296875-4.27734375,0-3.3486328125-.8359375-5.794921875-2.5107421875-7.34765625-1.673828125-1.548828125-3.751953125-2.32421875-6.2314453125-2.32421875-2.853515625,0-5.5185546875.8681640625-7.998046875,2.603515625-2.4814453125,1.73828125-4.6494140625,3.8447265625-6.509765625,6.32421875-1.842043725260737,2.458315706873691-3.200074127078551,4.854332669143332-4.067444645508658,7.188050886814381-.016365961251722.044033710059011-.024352229491342.089981287441333-.024352229491342.13695800836831v34.152530167317309c0,4.9609375,1.1162109375,9.146484375,3.34765625,12.5556640625,2.232421875,3.4111328125,5.6416015625,5.1142578125,10.23046875,5.1142578125h.000003162109351c1.746382889068627,0,3.162106212890649,1.415723174166487,3.162106212890649,3.162106212890649v4.835940662109351c0,1.746384785110422-1.415724589889578,3.162109375-3.162109375,3.162109375h-53.3818359375c-1.746384785110422,0-3.162109375-1.415724589889578-3.162109375-3.162109375v-4.835940662109351c0-1.746383038724161,1.415723323822021-3.162106212890649,3.162106212890649-3.162106212890649h.000003162109351c4.5859375,0,7.998046875-1.703125,10.2294921875-5.1142578125,2.232421875-3.4091796875,3.34765625-7.5947265625,3.34765625-12.5556640625v-23.435546875c0-3.34765625-.216796875-6.5712890625-.650390625-9.671875-.435546875-3.0986328125-1.39453125-5.734375-2.8828125-7.9052734375-1.48828125-2.16796875-3.970703125-3.44140625-7.439453125-3.8125-1.48828125-.1220703125-2.232421875-.9306640625-2.232421875-2.4189453125v-6.3232421875c0-1.23828125.9296875-2.0458984375,2.7890625-2.41796875,8.8037109375-1.36328125,16.5234375-3.5341796875,23.158203125-6.5107421875,6.630859375-2.9755859375,11.126953125-5.330078125,13.484375-7.0673828125.3720703125-.2470703125.6796875-.3720703125.9296875-.3720703125h.373046875c.24609375,0,.37109375.125.37109375.3720703125,0,.125-.15625,1.0546875-.46484375,2.7900390625-.310546875,1.7373046875-.6826171875,3.9375-1.115234375,6.6025390625-.4365234375,2.66796875-.9306640625,5.39453125-1.48828125,8.1845703125-.346800817957046,1.732185204378766-.657465695758219,3.333001209644863-.932228329878853,4.802214319321138Z"/>
    <path class="cls-2" d="m3079.021484375,1779.97265625c7.0673828125,0,13.6064453125,1.3955078125,19.623046875,4.185546875,6.01171875,2.7900390625,11.1884765625,6.5732421875,15.5302734375,11.345703125,4.3388671875,4.775390625,7.7197265625,10.107421875,10.1376953125,15.99609375,2.41796875,5.890625,3.626953125,11.9970703125,3.626953125,18.3212890625,0,9.177734375-2.171875,17.390625-6.5107421875,24.64453125-4.341796875,7.25390625-10.0439453125,12.958984375-17.1123046875,17.1123046875-7.0673828125,4.15234375-14.7578125,6.23046875-23.0634765625,6.23046875-7.0673828125,0-13.578125-1.365234375-19.5302734375-4.091796875-5.951171875-2.7255859375-11.130859375-6.4169921875-15.53125-11.0673828125-4.40234375-4.6494140625-7.8115234375-9.9794921875-10.2294921875-15.9951171875-2.41796875-6.013671875-3.626953125-12.3056640625-3.626953125-18.8798828125,0-9.0498046875,2.1064453125-17.1728515625,6.3232421875-24.365234375,4.21484375-7.1904296875,9.859375-12.8955078125,16.9267578125-17.1123046875,7.0673828125-4.2138671875,14.8798828125-6.32421875,23.4365234375-6.32421875Zm7.998046875,82.7705078125c2.353515625,0,4.95703125-.619140625,7.8115234375-1.8603515625,2.8505859375-1.23828125,5.3623046875-3.4091796875,7.5322265625-6.509765625,2.16796875-3.0986328125,3.255859375-7.3759765625,3.255859375-12.833984375,0-4.3388671875-.837890625-9.1435546875-2.51171875-14.4150390625-1.673828125-5.26953125-3.96875-10.3525390625-6.880859375-15.251953125-2.916015625-4.8974609375-6.32421875-8.927734375-10.23046875-12.08984375s-8.1552734375-4.7431640625-12.7412109375-4.7431640625c-5.0859375,0-9.4853515625,1.8916015625-13.2060546875,5.6728515625-3.7197265625,3.7841796875-5.580078125,8.9599609375-5.580078125,15.53125,0,4.216796875.8369140625,8.9912109375,2.51171875,14.3212890625,1.673828125,5.3330078125,3.966796875,10.4482421875,6.880859375,15.345703125,2.912109375,4.8994140625,6.353515625,8.927734375,10.32421875,12.08984375,3.966796875,3.162109375,8.244140625,4.7431640625,12.833984375,4.7431640625Z"/>
    <path class="cls-2" d="m3235.6328125,1837.8193359375c0,3.2255859375.21484375,6.4169921875.650390625,9.578125.43359375,3.162109375,1.423828125,5.830078125,2.9765625,7.998046875,1.548828125,2.1708984375,3.998046875,3.44140625,7.3466796875,3.8134765625.9912109375.125,1.5810546875.404296875,1.7666015625.8369140625.1865234375.435546875.279296875.9619140625.279296875,1.5810546875l-.000026169334888,5.766724716031604c-.000007461696441,1.644273493981018-1.338606511497346,2.972021604487963-2.982875384848739,2.9759197056228-5.908401336402676.014007165334988-10.835601945878807.356511288220645-14.779793758316373,1.022004015845596-4.03125.68359375-7.50390625,1.5517578125-10.416015625,2.6044921875-2.9150390625,1.0546875-5.7978515625,2.2001953125-8.6494140625,3.4404296875-.49609375.2470703125-.994140625.3720703125-1.48828125.3720703125h-.37109375c-.25,0-.373046875-.185546875-.373046875-.5576171875s.2158203125-2.2607421875.65234375-5.6728515625c.397044862666007-3.128856920011458,1.083633565351192-8.372535466984118,2.055991451155933-15.734055366434404.053408924328323-.404347889802011-.483281287888531-.593491408171758-.682729445956284-.237724403757966-1.633796703908956,2.914295949394727-3.734779872309446,5.912285216147211-6.302949505199649,8.99619383269237-3.1015625,3.720703125-6.853515625,6.853515625-11.2529296875,9.3935546875-4.4033203125,2.5400390625-9.45703125,3.8125-15.1591796875,3.8125-6.6953125,0-12.12109375-1.0224609375-16.275390625-3.068359375-4.1552734375-2.0458984375-7.3466796875-4.7724609375-9.578125-8.1845703125-2.232421875-3.4091796875-3.751953125-7.25390625-4.556640625-11.5322265625-.80859375-4.27734375-1.208984375-8.6484375-1.208984375-13.1123046875v-30.6904296875c0-5.0830078125-1.1484375-9.2998046875-3.44140625-12.6474609375-2.296875-3.3486328125-5.7373046875-5.0224609375-10.3232421875-5.0224609375h-.373046875c-1.745845444535007,0-3.1611328125-1.415287367966812-3.1611328125-3.1611328125v-4.837890625c0-1.745845444533188,1.415287367966812-3.1611328125,3.1611328125-3.1611328125h37.0166015625c1.745306103957773,0,3.16015625,1.414850146042227,3.16015625,3.16015625v57.4765625c0,3.34765625.30859375,6.4169921875.9296875,9.2060546875.619140625,2.7900390625,1.8896484375,5.0224609375,3.8134765625,6.6962890625,1.9208984375,1.673828125,4.8037109375,2.5107421875,8.6494140625,2.5107421875,3.09765625,0,6.19921875-.7724609375,9.2998046875-2.32421875,3.0986328125-1.5498046875,5.8583984375-3.5341796875,8.2763671875-5.9521484375,2.396634182636262-2.396634182636262,4.090983586729635-4.884411881614142,5.08875385391184-7.464284037205289.017709405985443-.045790103091349.02648052108816-.094199039418527.02648052108816-.143294422108738v-34.335780915685973c0-5.0830078125-1.1484375-9.2998046875-3.44140625-12.6474609375-2.294921875-3.3486328125-5.671875-5.0224609375-10.13671875-5.0224609375h-.000003162109351c-1.746383127487206,0-3.162106212890649-1.415723174166487-3.162106212890649-3.162106212890649v-4.836917224609351c0-1.745845444533188,1.415287367966812-3.1611328125,3.1611328125-3.1611328125h36.64453125c1.745845444533188,0,3.1611328125,1.415287367966812,3.1611328125,3.1611328125v52.267578125Z"/>
    <path class="cls-2" d="m3292.101340257519041,1789.177788149523622c-.218196145753609,1.707013440844094,1.966454191409866,2.580203084244204,2.991658568653293,1.198009020397876.019719533202078-.026586134765239.039501173827375-.053219044921207.059344923827666-.079898732421498,1.982421875-2.6650390625,4.958984375-5.05078125,8.9287109375-7.1611328125,3.966796875-2.107421875,9.1142578125-3.162109375,15.4384765625-3.162109375,4.212890625,0,8.677734375.869140625,13.390625,2.6044921875,4.7119140625,1.7373046875,9.17578125,4.52734375,13.392578125,8.3701171875,4.21484375,3.8447265625,7.6552734375,8.8662109375,10.3232421875,15.0654296875,2.6650390625,6.2021484375,3.9990234375,13.828125,3.9990234375,22.8779296875,0,11.41015625-2.0458984375,20.7392578125-6.138671875,27.9931640625-4.091796875,7.25390625-9.423828125,12.5546875-15.99609375,15.9033203125-6.5732421875,3.34765625-13.640625,5.021484375-21.203125,5.021484375-8.226156955959596,0-15.41098638441872-2.266374983064452-21.557084848833256-6.799774090053688-1.085584225289494-.800733438616589-2.622602651166744.009799832179851-2.622602651166744,1.35875022041364v11.393172307140048c0,4.9580078125,1.115234375,9.1435546875,3.34765625,12.5546875,1.997394271935264,3.050263955959963,4.936031180266582,4.737133262524367,8.820121899629157,5.058488738490269,2.349169830089522.194361729274533,4.199400168778084,2.067902766844782,4.199402534371984,4.425099273801607l.000002346951078,2.338620624212126c.000002468184903,2.459423777552729-1.993753741897308,4.453181988495999-4.453177519450037,4.453181988495999h-49.869028318051278c-2.459423578127826,0-4.453180318450904-1.993756740323079-4.453180318450904-4.453180318450904v-3.916936869049096c0-1.859375.990234375-2.7900390625,2.9755859375-2.7900390625,4.5859375,0,7.9658203125-1.7060546875,10.1376953125-5.115234375,2.16796875-3.4111328125,3.25390625-7.5966796875,3.25390625-12.5546875v-63.9833984375c0-3.3486328125-.185546875-6.5712890625-.5576171875-9.6728515625-.3720703125-3.09765625-1.333984375-5.7333984375-2.8828125-7.904296875-1.5517578125-2.16796875-4.0634765625-3.44140625-7.533203125-3.8134765625-.8681640625-.1220703125-1.4267578125-.4013671875-1.673828125-.8369140625-.25-.4326171875-.3720703125-.958984375-.3720703125-1.5810546875v-6.32421875c0-1.609375.8662109375-2.41796875,2.603515625-2.41796875,6.19921875,0,11.283203125-.2783203125,15.251953125-.8369140625,3.9677734375-.5576171875,7.408203125-1.39453125,10.32421875-2.5107421875,2.9111328125-1.1162109375,5.794921875-2.3544921875,8.6484375-3.7197265625.3720703125-.2470703125.7119140625-.3720703125,1.0234375-.3720703125h.8359375c.248046875,0,.373046875.185546875.373046875.5576171875,0,.125-.033203125.4365234375-.09375.9296875-.064453125.4970703125-.2177734375,1.892578125-.46484375,4.185546875-.105520948196499.969061520350806-.254536703065241,2.208312779755943-.447487867480959,3.717827212023622Zm1.006081617480959,52.98031137228827c0,.083284894672033.005284745229801.166765376909098.016178410072825.249334752263167.501431266515283,3.800637072921745,1.581934327225099,7.478953252397332,3.237727839927175,11.034948538424942,1.673828125,3.5986328125,4,6.5107421875,6.9755859375,8.7421875,2.9755859375,2.232421875,6.509765625,3.3486328125,10.6025390625,3.3486328125,5.951171875,0,10.6015625-1.48828125,13.94921875-4.4638671875,3.34765625-2.9765625,5.673828125-6.818359375,6.974609375-11.5322265625,1.302734375-4.7109375,1.953125-9.6083984375,1.953125-14.6943359375,0-11.904296875-2.388671875-21.326171875-7.16015625-28.271484375-4.775390625-6.943359375-11.005859375-10.416015625-18.693359375-10.416015625-4.9609375,0-8.9599609375,1.39453125-11.9970703125,4.1845703125-2.930988718318986,2.689956559021084-4.851642959758465,5.293676123161276-5.761087528993812,7.810283497090495-.067448506088112.186642939574085-.097310908506188.38216559355169-.097310908506188.580621855397112v33.427350419324284Z"/>
  </g>
  <circle class="cls-1" cx="3376.588235294117112" cy="1867.573299632353155" r="10.235294117646845"/>
</svg>